<svg xmlns="http://www.w3.org/2000/svg" xmlns:xlink="http://www.w3.org/1999/xlink" width="500" zoomAndPan="magnify" viewBox="0 0 375 374.999991" height="500" preserveAspectRatio="xMidYMid meet" version="1.0"><defs><clipPath id="id1"><path d="M 24.101562 94.484375 L 351 94.484375 L 351 299 L 24.101562 299 Z M 24.101562 94.484375 " clip-rule="nonzero"/></clipPath></defs><g clip-path="url(#id1)"><path fill="#ffffff" d="M 212.800781 289.183594 C 212.800781 289.183594 150.550781 291.179688 92.289062 241.089844 C 34.027344 191.003906 25.054688 96.144531 24.390625 96.8125 C 23.726562 97.476562 112.558594 79.632812 177.578125 138.808594 C 242.59375 197.984375 212.800781 289.183594 212.800781 289.183594 Z M 333.644531 226.128906 C 352.25 189.007812 350.699219 141.578125 350.699219 141.578125 C 350.699219 141.578125 290.777344 141.136719 257.546875 182.246094 C 214.570312 235.21875 232.292969 298.160156 232.292969 298.160156 C 232.292969 298.160156 306.726562 279.765625 333.644531 226.128906 Z M 333.644531 226.128906 " fill-opacity="1" fill-rule="nonzero"/></g><path fill="#0ca789" d="M 291.996094 195.765625 C 289.890625 193.550781 286.347656 193.550781 284.132812 195.65625 C 249.019531 230.230469 231.742188 271.34375 223.324219 313.230469 C 214.019531 265.800781 187.988281 193.773438 114.996094 155.875 C 112.226562 154.433594 108.902344 155.542969 107.574219 158.203125 C 106.132812 160.859375 107.242188 164.296875 109.898438 165.625 C 211.804688 218.59375 217.121094 342.816406 217.339844 357.777344 C 216.234375 371.851562 215.902344 385.703125 215.789062 399.222656 C 215.789062 402.324219 218.226562 404.761719 221.328125 404.761719 C 224.320312 404.761719 226.867188 402.324219 226.867188 399.222656 C 226.976562 386.589844 227.308594 373.734375 228.195312 360.65625 C 228.308594 360.214844 228.417969 359.769531 228.417969 359.328125 L 228.417969 358.109375 C 232.625 303.921875 246.914062 247.628906 291.886719 203.414062 C 294.101562 201.417969 294.101562 197.984375 291.996094 195.765625 Z M 291.996094 195.765625 " fill-opacity="1" fill-rule="nonzero"/></svg>